<?xml version="1.0" standalone="no"?>
<!DOCTYPE svg PUBLIC "-//W3C//DTD SVG 20010904//EN"
 "http://www.w3.org/TR/2001/REC-SVG-20010904/DTD/svg10.dtd">
<svg version="1.0" xmlns="http://www.w3.org/2000/svg"
 width="700.000000pt" height="700.000000pt" viewBox="0 0 700.000000 700.000000"
 preserveAspectRatio="xMidYMid meet">
<metadata>
Created by potrace 1.14, written by Peter Selinger 2001-2017
</metadata>
<g transform="translate(0.000000,700.000000) scale(0.100000,-0.100000)"
fill="#000000" stroke="none">
<path d="M3185 6970 c-829 -83 -1574 -432 -2153 -1008 -792 -788 -1159 -1901
-992 -3005 110 -725 437 -1382 952 -1912 459 -473 1037 -805 1673 -961 304
-74 328 -76 785 -81 376 -4 428 -2 550 15 624 92 1198 342 1695 738 141 112
415 387 529 529 414 518 667 1120 752 1790 22 173 25 604 6 770 -96 817 -429
1522 -988 2091 -552 562 -1246 907 -2054 1019 -135 19 -617 28 -755 15z m1695
-3110 c430 -1141 785 -2081 787 -2087 4 -10 -130 -13 -651 -13 -361 0 -656 -3
-656 -8 0 -4 31 -88 69 -187 l68 -180 -1580 -3 c-869 -1 -1582 0 -1584 2 -4 4
1566 4167 1577 4179 3 4 121 -296 261 -667 140 -371 257 -672 260 -668 4 4
152 393 330 864 178 472 326 854 330 850 3 -4 358 -941 789 -2082z"/>
</g>
</svg>
