<svg width="26" height="26" viewBox="0 0 26 26" fill="none" xmlns="http://www.w3.org/2000/svg">
<path fill-rule="evenodd" clip-rule="evenodd" d="M14.8943 12.743L25.3475 2.28991C25.8158 1.82167 25.8158 1.06258 25.3475 0.594343C24.8793 0.126105 24.1202 0.126105 23.652 0.594343L13.1987 11.0474L2.74551 0.595941C2.27726 0.127703 1.51816 0.127703 1.04991 0.595941C0.581669 1.06418 0.581669 1.82327 1.04991 2.29151L11.5031 12.7446L1.05151 23.196C0.583267 23.6643 0.583267 24.4233 1.05151 24.8916C1.28643 25.1249 1.59167 25.2432 1.89851 25.2432C2.20535 25.2432 2.51218 25.1265 2.74551 24.8916L13.1987 14.4385L23.652 24.8916C23.8869 25.1249 24.1921 25.2432 24.499 25.2432C24.8058 25.2432 25.1126 25.1265 25.3459 24.8916C25.8142 24.4233 25.8142 23.6643 25.3459 23.196L14.8943 12.743Z" fill="#383A3F"/>
</svg>
