<svg xmlns="http://www.w3.org/2000/svg" xmlns:xlink="http://www.w3.org/1999/xlink">

<symbol viewBox="0 0 70 70" id="icon_bg">
    <circle cx="35" cy="35" r="35"/>
</symbol>
<!-- accordance -->
<symbol viewBox="0 0 70 70" id="accordance">
<path d="M29.154 38.1205C29.5127 38.4743 29.9825 38.668 30.4864 38.668C30.4949 38.668 30.5034 38.668 30.512 38.668C30.7938 38.668 31.0586 38.6006 31.2977 38.4827L31.6052 48.1597C31.6479 49.2209 32.519 50.0547 33.6037 50.0547C34.1503 50.0547 34.6456 49.8357 35.0043 49.4904C35.3631 49.8357 35.8584 50.0547 36.405 50.0547C37.4811 50.0547 38.3608 49.2209 38.4035 48.1513L38.711 38.4827C38.9587 38.5922 39.2234 38.6596 39.5053 38.6596C40.5472 38.6596 41.3927 37.8258 41.3927 36.7983V29.7406C41.4696 28.9152 41.1878 28.0898 40.6241 27.4666C40.0519 26.8434 39.232 26.4812 38.3779 26.4812H37.148C36.9943 26.4812 36.8491 26.5402 36.7381 26.6412L35.0043 28.2414L33.3389 26.6496C33.2279 26.5402 33.0742 26.4812 32.9204 26.4812H31.6137C30.7597 26.4812 29.9398 26.8434 29.3675 27.4666C28.8039 28.0814 28.522 28.9068 28.5989 29.7406V36.7983C28.5989 37.3036 28.7953 37.7752 29.154 38.1205ZM36.3965 48.884C35.9524 48.884 35.5936 48.5302 35.5936 48.0923V38.4406C35.5936 38.1121 35.3289 37.851 34.9958 37.851C34.6627 37.851 34.398 38.1121 34.398 38.4406V48.0923C34.398 48.5302 34.0393 48.884 33.5951 48.884C33.1596 48.884 32.8094 48.5471 32.7923 48.126L32.4336 36.8067H37.558L37.1993 48.1176C37.1822 48.5471 36.832 48.884 36.3965 48.884ZM30.2558 28.2667C30.6059 27.8793 31.0927 27.6687 31.6137 27.6687H32.6813L34.5773 29.4879C34.6115 29.5216 34.6542 29.5553 34.6969 29.5721C34.7054 29.5805 34.7225 29.5805 34.731 29.589C34.7396 29.5974 34.7481 29.5974 34.7652 29.6058C34.9873 29.6984 35.2349 29.6563 35.4143 29.4963L37.3872 27.6687H38.3779C38.8989 27.6687 39.3857 27.8793 39.7359 28.2667C40.086 28.6541 40.2483 29.1426 40.197 29.6563C40.197 29.6732 40.197 29.6984 40.197 29.7153V36.7983C40.197 37.1773 39.8896 37.4805 39.5053 37.4805C39.3174 37.4805 39.1465 37.4131 39.0184 37.2783C38.8903 37.152 38.8135 36.9751 38.8135 36.7983V35.2402L38.822 35.0128C38.822 34.9791 38.822 34.937 38.8135 34.9033V32.0566C38.8135 31.7282 38.5487 31.4671 38.2156 31.4671C37.8825 31.4671 37.6178 31.7282 37.6178 32.0566V35.2233L37.6092 35.6192H32.4165L32.3995 34.9791C32.3995 34.9538 32.3995 34.9286 32.3909 34.9033V32.0566C32.3909 31.7282 32.1262 31.4671 31.7931 31.4671C31.46 31.4671 31.1952 31.7282 31.1952 32.0566V36.773C31.1952 37.1604 30.8878 37.4889 30.512 37.4889C30.3241 37.4889 30.1447 37.4215 30.0166 37.2868C29.8885 37.1604 29.8116 36.9836 29.8116 36.8067V29.7153C29.8116 29.6984 29.8116 29.6732 29.8116 29.6563C29.7433 29.1426 29.9056 28.6541 30.2558 28.2667Z"/>
<path d="M37.8481 23.7692V22.8428C37.8481 21.2426 36.5329 19.9456 34.9101 19.9456C33.2874 19.9456 31.9722 21.2426 31.9722 22.8428V23.7692C31.9722 25.3694 33.2874 26.6664 34.9101 26.6664C36.5329 26.658 37.8481 25.361 37.8481 23.7692ZM33.1764 23.7692V22.8428C33.1764 21.8995 33.9536 21.1247 34.9187 21.1247C35.8752 21.1247 36.661 21.8911 36.661 22.8428V23.7692C36.661 24.7125 35.8838 25.4873 34.9187 25.4873C33.9536 25.4789 33.1764 24.7125 33.1764 23.7692Z"/>
<path d="M51.701 30.1699C51.59 30.0099 51.4021 29.9172 51.2057 29.9172C51.0093 29.9172 50.8214 30.0099 50.7103 30.1699L46.0386 36.857C45.9105 37.0339 45.902 37.2697 46.0044 37.4634C46.1069 37.6571 46.3119 37.7751 46.534 37.7751H50.437C49.8648 41.4387 47.909 44.7654 44.8942 47.191C42.016 49.507 38.4033 50.8293 34.9785 50.8293C32.7409 50.8293 30.4093 50.265 28.2229 49.1954C25.9596 48.0921 23.9696 46.4919 22.475 44.5717C22.27 44.3106 21.8943 44.2685 21.638 44.4622C21.3733 44.6643 21.3306 45.0349 21.527 45.2876C23.1327 47.3426 25.2678 49.0607 27.6933 50.2482C30.042 51.3936 32.5615 52 34.9785 52C38.6766 52 42.5626 50.5766 45.6543 48.0921C48.951 45.4476 51.069 41.784 51.6498 37.7666H55.903C56.1251 37.7666 56.3301 37.6487 56.4326 37.455C56.535 37.2613 56.518 37.0255 56.3984 36.8486L51.701 30.1699ZM47.6699 36.6044L51.2142 31.5427L54.7586 36.6044H47.6699Z"/>
<path d="M23.9954 32.5365C23.8929 32.3428 23.6879 32.2249 23.4659 32.2249H19.5628C20.135 28.5613 22.0908 25.2346 25.1057 22.809C27.9839 20.4929 31.5966 19.1707 35.0213 19.1707C37.259 19.1707 39.5906 19.735 41.777 20.8046C44.0403 21.9079 46.0302 23.5081 47.5248 25.4283C47.7298 25.6894 48.1056 25.7315 48.3618 25.5378C48.6266 25.3356 48.6693 24.9651 48.4728 24.7124C46.8672 22.6574 44.732 20.9393 42.3065 19.7518C39.9578 18.6064 37.4383 18 35.0213 18C31.3233 18 27.4373 19.4233 24.3456 21.9079C21.0574 24.544 18.9393 28.1992 18.35 32.2249H14.0968C13.8748 32.2249 13.6698 32.3428 13.5673 32.5365C13.4648 32.7302 13.4819 32.9661 13.6015 33.1429L18.2817 39.8301C18.3927 39.9901 18.5806 40.0827 18.7771 40.0827C18.9735 40.0827 19.1614 39.9901 19.2724 39.8301L23.9527 33.1429C24.0808 32.9661 24.0979 32.7302 23.9954 32.5365ZM18.7856 38.4657L15.2413 33.404H22.33L18.7856 38.4657Z"/>
</symbol>
<!-- affiliate -->
<symbol viewBox="0 0 70 70" id="affiliate">
<path d="M53.9177 15.4376H35.7756V14.823C35.7756 14.576 35.6777 14.3391 35.5035 14.1645C35.3293 13.9898 35.0931 13.8917 34.8467 13.8917C34.6003 13.8917 34.364 13.9898 34.1898 14.1645C34.0156 14.3391 33.9177 14.576 33.9177 14.823V15.4376H15.7756C15.5292 15.4376 15.293 15.5357 15.1188 15.7104C14.9445 15.885 14.8467 16.1219 14.8467 16.3689V42.2625C14.8467 42.5095 14.9445 42.7463 15.1188 42.921C15.293 43.0956 15.5292 43.1937 15.7756 43.1937H53.9177C54.1641 43.1937 54.4004 43.0956 54.5746 42.921C54.7488 42.7463 54.8467 42.5095 54.8467 42.2625V16.3689C54.8467 16.1219 54.7488 15.885 54.5746 15.7104C54.4004 15.5357 54.1641 15.4376 53.9177 15.4376ZM52.9888 41.3312H16.7046V17.3001H52.9888V41.3312Z"/>
<path d="M35.7755 47.9292V46.2949H38.2186C38.4649 46.2949 38.7012 46.1968 38.8754 46.0221C39.0496 45.8475 39.1475 45.6106 39.1475 45.3636C39.1475 45.1166 39.0496 44.8798 38.8754 44.7051C38.7012 44.5305 38.4649 44.4324 38.2186 44.4324H31.4977C31.2513 44.4324 31.0151 44.5305 30.8409 44.7051C30.6666 44.8798 30.5688 45.1166 30.5688 45.3636C30.5688 45.6106 30.6666 45.8475 30.8409 46.0221C31.0151 46.1968 31.2513 46.2949 31.4977 46.2949H33.9176V47.9292L29.324 54.4015C29.1811 54.6028 29.1238 54.8527 29.1648 55.0964C29.2057 55.34 29.3415 55.5573 29.5423 55.7006C29.7431 55.8438 29.9924 55.9013 30.2354 55.8602C30.4785 55.8192 30.6953 55.683 30.8382 55.4817L34.8465 49.8523L38.8549 55.5004C38.9256 55.6 39.0153 55.6848 39.1187 55.7497C39.2221 55.8146 39.3373 55.8585 39.4576 55.8788C39.5779 55.8992 39.7011 55.8955 39.82 55.8681C39.939 55.8408 40.0513 55.7901 40.1508 55.7192C40.2502 55.6483 40.3347 55.5584 40.3995 55.4547C40.4642 55.3511 40.508 55.2356 40.5283 55.115C40.5486 54.9944 40.5449 54.8709 40.5176 54.7517C40.4903 54.6324 40.4398 54.5198 40.3691 54.4201L35.7755 47.9292Z"/>
<path d="M25.2742 35.2642C25.0278 35.2642 24.7915 35.3623 24.6173 35.5369C24.4431 35.7116 24.3452 35.9484 24.3452 36.1954V37.5923C24.3452 37.8393 24.4431 38.0762 24.6173 38.2508C24.7915 38.4254 25.0278 38.5236 25.2742 38.5236C25.5205 38.5236 25.7568 38.4254 25.931 38.2508C26.1052 38.0762 26.2031 37.8393 26.2031 37.5923V36.1954C26.2031 35.9484 26.1052 35.7116 25.931 35.5369C25.7568 35.3623 25.5205 35.2642 25.2742 35.2642Z" />
<path d="M29.1013 30.9243C28.8549 30.9243 28.6187 31.0224 28.4444 31.1971C28.2702 31.3717 28.1724 31.6086 28.1724 31.8556V37.6107C28.1724 37.8577 28.2702 38.0946 28.4444 38.2692C28.6187 38.4439 28.8549 38.542 29.1013 38.542C29.3477 38.542 29.5839 38.4439 29.7582 38.2692C29.9324 38.0946 30.0302 37.8577 30.0302 37.6107V31.8556C30.0302 31.6086 29.9324 31.3717 29.7582 31.1971C29.5839 31.0224 29.3477 30.9243 29.1013 30.9243Z" />
<path d="M32.9328 32.8428C32.6865 32.8428 32.4502 32.9409 32.276 33.1155C32.1018 33.2902 32.0039 33.527 32.0039 33.774V37.6108C32.0039 37.8578 32.1018 38.0947 32.276 38.2693C32.4502 38.444 32.6865 38.5421 32.9328 38.5421C33.1792 38.5421 33.4155 38.444 33.5897 38.2693C33.7639 38.0947 33.8618 37.8578 33.8618 37.6108V33.774C33.8618 33.527 33.7639 33.2902 33.5897 33.1155C33.4155 32.9409 33.1792 32.8428 32.9328 32.8428Z" />
<path d="M36.7605 28.0421C36.5141 28.0421 36.2778 28.1402 36.1036 28.3149C35.9294 28.4895 35.8315 28.7264 35.8315 28.9734V37.6108C35.8315 37.8578 35.9294 38.0946 36.1036 38.2693C36.2778 38.4439 36.5141 38.542 36.7605 38.542C37.0068 38.542 37.2431 38.4439 37.4173 38.2693C37.5915 38.0946 37.6894 37.8578 37.6894 37.6108V28.9734C37.6894 28.7264 37.5915 28.4895 37.4173 28.3149C37.2431 28.1402 37.0068 28.0421 36.7605 28.0421Z" />
<path d="M40.592 29.4437C40.3457 29.4437 40.1094 29.5418 39.9352 29.7165C39.761 29.8911 39.6631 30.128 39.6631 30.375V37.6109C39.6631 37.8578 39.761 38.0947 39.9352 38.2694C40.1094 38.444 40.3457 38.5421 40.592 38.5421C40.8384 38.5421 41.0747 38.444 41.2489 38.2694C41.4231 38.0947 41.521 37.8578 41.521 37.6109V30.375C41.521 30.2527 41.4969 30.1316 41.4502 30.0186C41.4036 29.9056 41.3351 29.803 41.2489 29.7165C41.1626 29.63 41.0602 29.5614 40.9475 29.5146C40.8348 29.4678 40.714 29.4437 40.592 29.4437Z" />
<path d="M44.4197 25.1646C44.1733 25.1646 43.937 25.2627 43.7628 25.4373C43.5886 25.612 43.4907 25.8488 43.4907 26.0958V37.6108C43.4907 37.8578 43.5886 38.0947 43.7628 38.2693C43.937 38.444 44.1733 38.5421 44.4197 38.5421C44.666 38.5421 44.9023 38.444 45.0765 38.2693C45.2507 38.0947 45.3486 37.8578 45.3486 37.6108V26.0958C45.3486 25.8488 45.2507 25.612 45.0765 25.4373C44.9023 25.2627 44.666 25.1646 44.4197 25.1646Z" />
<path d="M32.6776 26.2029L29.5192 24.6198C29.3289 24.524 29.1115 24.4968 28.9035 24.5426C28.6955 24.5883 28.5095 24.7044 28.3767 24.8712L24.5494 29.6719C24.3956 29.8645 24.3243 30.1106 24.3513 30.3559C24.3783 30.6013 24.5014 30.8258 24.6934 30.9803C24.8581 31.1127 25.0629 31.185 25.274 31.1851C25.4171 31.1886 25.559 31.1589 25.6887 31.0983C25.8184 31.0377 25.9324 30.9479 26.0218 30.8359L29.3846 26.6453L32.5244 28.2051C32.7147 28.3009 32.9321 28.3281 33.1401 28.2823C33.3481 28.2366 33.5341 28.1205 33.6669 27.9537L37.0251 23.763L40.1834 25.3462C40.3581 25.4334 40.5558 25.4633 40.7484 25.4315C40.941 25.3997 41.1187 25.308 41.2564 25.1692L45.065 21.3138C45.1628 21.231 45.2424 21.1288 45.299 21.0137C45.3555 20.8986 45.3877 20.773 45.3935 20.6448C45.3994 20.5166 45.3787 20.3886 45.3328 20.2688C45.287 20.149 45.2169 20.04 45.1271 19.9486C45.0372 19.8572 44.9294 19.7854 44.8106 19.7378C44.6918 19.6901 44.5644 19.6676 44.4364 19.6716C44.3085 19.6756 44.1828 19.7061 44.0671 19.7611C43.9515 19.8162 43.8485 19.8946 43.7645 19.9914L40.4203 23.3626L37.169 21.7422C36.9787 21.6465 36.7613 21.6192 36.5533 21.665C36.3453 21.7107 36.1593 21.8268 36.0264 21.9936L32.6776 26.2029Z" />
</symbol>

<!-- convrsion_rate -->
<symbol viewBox="0 0 70 70" id="convrsion_rate">
<path d="M51.9 14.5C49.6389 14.5 47.8 16.3388 47.8 18.6C47.8 20.6274 49.2808 22.3112 51.2167 22.6385V24.0667H43.0167C42.6395 24.0667 42.3333 24.3728 42.3333 24.75V26.8H36.1833V22.6385C38.1192 22.3119 39.6 20.6281 39.6 18.6C39.6 16.3388 37.7612 14.5 35.5 14.5C33.2388 14.5 31.4 16.3388 31.4 18.6C31.4 20.6274 32.8808 22.3112 34.8167 22.6385V26.8H28.6667V24.75C28.6667 24.3728 28.3605 24.0667 27.9833 24.0667H19.7833V22.6385C21.7192 22.3119 23.2 20.6281 23.2 18.6C23.2 16.3388 21.3611 14.5 19.1 14.5C16.8388 14.5 15 16.3388 15 18.6C15 20.6274 16.4808 22.3112 18.4167 22.6385V24.75C18.4167 25.1272 18.7228 25.4333 19.1 25.4333H27.3V26.8H23.8833C23.5061 26.8 23.2 27.1061 23.2 27.4833V31.5833C23.2 31.8293 23.3319 32.0562 23.5458 32.1778L32.7667 37.417V41.8333C32.7667 42.0855 32.9054 42.3171 33.1275 42.436C33.2286 42.49 33.3393 42.5167 33.45 42.5167C33.5826 42.5167 33.7145 42.4777 33.8293 42.4019L37.9293 39.6685C38.1192 39.5414 38.2333 39.3282 38.2333 39.1V37.417L47.4542 32.1778C47.6681 32.0562 47.8 31.8293 47.8 31.5833V27.4833C47.8 27.1061 47.4939 26.8 47.1167 26.8H43.7V25.4333H51.9C52.2772 25.4333 52.5833 25.1272 52.5833 24.75V22.6385C54.5192 22.3119 56 20.6281 56 18.6C56 16.3388 54.1612 14.5 51.9 14.5ZM32.7667 18.6C32.7667 17.0926 33.9926 15.8667 35.5 15.8667C37.0074 15.8667 38.2333 17.0926 38.2333 18.6C38.2333 20.1074 37.0074 21.3333 35.5 21.3333C33.9926 21.3333 32.7667 20.1074 32.7667 18.6ZM16.3667 18.6C16.3667 17.0926 17.5926 15.8667 19.1 15.8667C20.6074 15.8667 21.8333 17.0926 21.8333 18.6C21.8333 20.1074 20.6074 21.3333 19.1 21.3333C17.5926 21.3333 16.3667 20.1074 16.3667 18.6ZM46.4333 31.1856L37.2124 36.4247C36.9986 36.5464 36.8667 36.7733 36.8667 37.0193V38.7344L34.1333 40.5569V37.0193C34.1333 36.7733 34.0014 36.5464 33.7876 36.4247L24.5667 31.1856V28.1667H46.4333V31.1856ZM51.9 21.3333C50.3926 21.3333 49.1667 20.1074 49.1667 18.6C49.1667 17.0926 50.3926 15.8667 51.9 15.8667C53.4074 15.8667 54.6333 17.0926 54.6333 18.6C54.6333 20.1074 53.4074 21.3333 51.9 21.3333Z" />
<path d="M41.6501 49.35C41.6501 45.9593 38.8908 43.2 35.5001 43.2C32.1094 43.2 29.3501 45.9593 29.3501 49.35C29.3501 52.7407 32.1094 55.5 35.5001 55.5C38.8908 55.5 41.6501 52.7407 41.6501 49.35ZM40.2834 49.35C40.2834 51.7546 38.4979 53.7451 36.1834 54.0786V52.7666C37.3137 52.7666 38.2334 51.8469 38.2334 50.7166C38.2334 49.5864 37.3137 48.6666 36.1834 48.6666H34.8168C34.4402 48.6666 34.1334 48.3598 34.1334 47.9833C34.1334 47.6068 34.4402 47.3 34.8168 47.3H36.1834C36.5599 47.3 36.8668 47.6068 36.8668 47.9833H38.2334C38.2334 46.8531 37.3137 45.9333 36.1834 45.9333V44.6213C38.4979 44.9548 40.2834 46.9453 40.2834 49.35ZM30.7168 49.35C30.7168 46.9453 32.5023 44.9548 34.8168 44.6213V45.9333C33.6865 45.9333 32.7668 46.8531 32.7668 47.9833C32.7668 49.1135 33.6865 50.0333 34.8168 50.0333H36.1834C36.5599 50.0333 36.8668 50.3401 36.8668 50.7166C36.8668 51.0931 36.5599 51.4 36.1834 51.4H34.8168C34.4402 51.4 34.1334 51.0931 34.1334 50.7166H32.7668C32.7668 51.8469 33.6865 52.7666 34.8168 52.7666V54.0786C32.5023 53.7451 30.7168 51.7546 30.7168 49.35Z" />

</symbol>
<!-- data -->
<symbol viewBox="0 0 70 70" id="data">
<path d="M50.1541 57.4472H19.8456C19.4795 57.4472 19.1826 57.1504 19.1826 56.7842V13.2157C19.1826 12.8496 19.4795 12.5527 19.8456 12.5527H43.5242C43.6824 12.5527 43.8355 12.6094 43.9557 12.7123L50.5857 18.3952C50.7326 18.5211 50.8171 18.7051 50.8171 18.8986V56.7842C50.8171 57.1504 50.5203 57.4472 50.1541 57.4472ZM20.5086 56.1212H49.4911V19.2036L43.2788 13.8787H20.5086V56.1212Z" />
<path d="M50.1541 19.5616H43.5241C43.1579 19.5616 42.8611 19.2647 42.8611 18.8986V13.2157C42.8611 12.8496 43.1579 12.5527 43.5241 12.5527C43.8902 12.5527 44.1871 12.8496 44.1871 13.2157V18.2356H50.1541C50.5202 18.2356 50.8171 18.5324 50.8171 18.8986C50.8171 19.2647 50.5202 19.5616 50.1541 19.5616Z" />
<path d="M43.5241 47.0286H34.0526C33.6865 47.0286 33.3896 46.7318 33.3896 46.3656C33.3896 45.9995 33.6865 45.7026 34.0526 45.7026H43.5241C43.8902 45.7026 44.1871 45.9995 44.1871 46.3656C44.1871 46.7318 43.8902 47.0286 43.5241 47.0286Z" />
<path d="M43.524 50.8172H26.4755C26.1093 50.8172 25.8125 50.5204 25.8125 50.1542C25.8125 49.788 26.1093 49.4912 26.4755 49.4912H43.524C43.8902 49.4912 44.187 49.788 44.187 50.1542C44.187 50.5204 43.8902 50.8172 43.524 50.8172Z" />
<path d="M31.2112 47.0286H30.2641C29.8979 47.0286 29.6011 46.7318 29.6011 46.3656C29.6011 45.9995 29.8979 45.7026 30.2641 45.7026H31.2112C31.5774 45.7026 31.8742 45.9995 31.8742 46.3656C31.8742 46.7318 31.5774 47.0286 31.2112 47.0286Z" />
<path d="M27.4226 47.0286H26.4755C26.1093 47.0286 25.8125 46.7318 25.8125 46.3656C25.8125 45.9995 26.1093 45.7026 26.4755 45.7026H27.4226C27.7888 45.7026 28.0856 45.9995 28.0856 46.3656C28.0856 46.7318 27.7888 47.0286 27.4226 47.0286Z" />
<path d="M34.9999 43.24C29.4118 43.24 24.8655 38.6937 24.8655 33.1056C24.8655 27.5175 29.4118 22.9712 34.9999 22.9712C40.588 22.9712 45.1343 27.5175 45.1343 33.1056C45.1343 38.6937 40.588 43.24 34.9999 43.24ZM34.9999 24.2972C30.143 24.2972 26.1915 28.2487 26.1915 33.1056C26.1915 37.9625 30.143 41.914 34.9999 41.914C39.8568 41.914 43.8083 37.9625 43.8083 33.1056C43.8083 28.2487 39.8568 24.2972 34.9999 24.2972Z" />
<path d="M39.7362 41.3458C39.5151 41.3458 39.2991 41.2354 39.1734 41.0341L34.4377 33.457C34.3719 33.3517 34.3369 33.2299 34.3369 33.1056V23.6342C34.3369 23.268 34.6337 22.9712 34.9999 22.9712C35.3661 22.9712 35.6629 23.268 35.6629 23.6342V32.9154L40.2978 40.3314C40.492 40.6418 40.3976 41.0509 40.087 41.245C39.9777 41.3133 39.8561 41.3458 39.7362 41.3458Z" />
<path d="M44.4713 33.7686H34.9999C34.6337 33.7686 34.3369 33.4718 34.3369 33.1056C34.3369 32.7395 34.6337 32.4426 34.9999 32.4426H44.4713C44.8375 32.4426 45.1343 32.7395 45.1343 33.1056C45.1343 33.4718 44.8375 33.7686 44.4713 33.7686Z" />

</symbol>
<!-- digital_PR -->
<symbol viewBox="0 0 70 70" id="digital_PR">
<path d="M25.0534 33.195C24.3907 33.213 23.7301 33.2794 23.0772 33.394C22.3512 33.5207 21.6585 33.7916 21.0403 34.1904C20.4221 34.5892 19.8912 35.1077 19.4794 35.7149C18.5236 37.1233 17.8121 38.6809 17.3745 40.3229H33.4388C33.0021 38.6811 32.2915 37.1235 31.3367 35.7149C30.9246 35.1073 30.3933 34.5887 29.7746 34.1899C29.1559 33.7911 28.4625 33.5204 27.736 33.394C26.8508 33.2389 25.9521 33.1723 25.0534 33.195ZM24.879 34.658C25.2306 34.6426 25.5827 34.6426 25.9343 34.658L25.4996 35.5045L26.6693 38.8683H24.144L25.3137 35.5045L24.879 34.658ZM23.3232 34.8257L23.7264 35.6154L22.5939 38.8683H19.4165C19.7645 38.0489 20.1916 37.2649 20.692 36.5274C20.9932 36.0829 21.3813 35.7029 21.8333 35.4106C22.2854 35.1182 22.7921 34.9194 23.3232 34.8257ZM27.493 34.8257C28.0236 34.9198 28.5297 35.1187 28.9812 35.4111C29.4327 35.7034 29.8204 36.0832 30.1212 36.5274C30.6216 37.2649 31.0488 38.0489 31.3968 38.8683H28.2194L27.0868 35.6154L27.493 34.8257Z" />
<path d="M25.2966 23.5415C24.2237 23.5702 23.2047 24.0144 22.4571 24.7793C21.7095 25.5442 21.2926 26.5692 21.2955 27.6353C21.2864 28.1773 21.386 28.7156 21.5885 29.219C21.7911 29.7224 22.0924 30.1807 22.4751 30.5672C22.8578 30.9537 23.314 31.2608 23.8174 31.4703C24.3207 31.6798 24.8609 31.7877 25.4067 31.7877C25.9524 31.7877 26.4926 31.6798 26.996 31.4703C27.4993 31.2608 27.9555 30.9537 28.3382 30.5672C28.7209 30.1807 29.0222 29.7224 29.2248 29.219C29.4273 28.7156 29.5269 28.1773 29.5178 27.6353C29.5193 27.0888 29.4103 26.5476 29.1974 26.0438C28.9846 25.5399 28.6721 25.0837 28.2784 24.702C27.8848 24.3202 27.4181 24.0208 26.9059 23.8215C26.3937 23.6222 25.8465 23.5269 25.2966 23.5415ZM25.3365 24.9989C25.6905 24.9897 26.0428 25.051 26.3725 25.1794C26.7022 25.3079 27.0027 25.5007 27.256 25.7465C27.5093 25.9923 27.7104 26.2863 27.8474 26.6107C27.9844 26.9351 28.0545 27.2835 28.0534 27.6353C28.0607 27.9851 27.9975 28.3329 27.8678 28.6581C27.738 28.9834 27.5442 29.2796 27.2977 29.5295C27.0512 29.7795 26.7569 29.978 26.4322 30.1136C26.1075 30.2491 25.7588 30.3189 25.4066 30.3189C25.0543 30.3189 24.7057 30.2491 24.3809 30.1136C24.0562 29.978 23.762 29.7795 23.5155 29.5295C23.269 29.2796 23.0752 28.9834 22.9454 28.6581C22.8156 28.3329 22.7525 27.9851 22.7597 27.6353C22.7577 26.9486 23.0262 26.2884 23.5077 25.7958C23.9892 25.3032 24.6455 25.0172 25.3365 24.9989Z" />
<path d="M18.3987 18.5049C17.2337 18.5049 16.1163 18.9646 15.2925 19.783C14.4687 20.6013 14.0059 21.7113 14.0059 22.8686V38.8687C14.0059 40.026 14.4687 41.1358 15.2925 41.9541C16.1163 42.7725 17.2337 43.2322 18.3987 43.2322H28.0052C28.4166 43.2324 28.8157 43.3716 29.1368 43.627C29.458 43.8823 29.6821 44.2386 29.7723 44.6373C29.8625 45.036 29.8134 45.4534 29.6331 45.8207C29.4528 46.188 29.152 46.4833 28.7803 46.6582C26.8886 47.5474 25.2332 48.8649 23.947 50.5049H25.8774C26.9906 49.3446 28.3293 48.421 29.8125 47.7899C31.2956 47.1587 32.8923 46.8332 34.5059 46.8332C36.1194 46.8332 37.7161 47.1587 39.1992 47.7899C40.6824 48.421 42.0211 49.3446 43.1343 50.5049H45.0647C43.7794 48.8653 42.125 47.5478 40.2343 46.6582C39.8625 46.4833 39.5618 46.188 39.3815 45.8207C39.2012 45.4534 39.1521 45.036 39.2423 44.6373C39.3325 44.2386 39.5566 43.8823 39.8777 43.627C40.1989 43.3716 40.598 43.2324 41.0093 43.2322H50.613C51.7781 43.2322 52.8954 42.7725 53.7192 41.9541C54.543 41.1358 55.0059 40.026 55.0059 38.8687V22.8686C55.0059 21.7113 54.543 20.6013 53.7192 19.783C52.8954 18.9646 51.7781 18.5049 50.613 18.5049H18.3987ZM18.3987 19.9595H50.613C50.9976 19.9595 51.3784 20.0347 51.7337 20.1809C52.089 20.3271 52.4119 20.5414 52.6838 20.8116C52.9558 21.0817 53.1715 21.4023 53.3187 21.7553C53.4658 22.1082 53.5416 22.4866 53.5416 22.8686V38.8687C53.5416 39.6402 53.233 40.38 52.6838 40.9255C52.1346 41.4711 51.3897 41.7776 50.613 41.7776H18.3987C17.622 41.7776 16.8771 41.4711 16.3279 40.9255C15.7787 40.38 15.4702 39.6402 15.4701 38.8687V22.8686C15.4701 22.4866 15.5459 22.1082 15.6931 21.7553C15.8402 21.4023 16.056 21.0817 16.3279 20.8116C16.5998 20.5414 16.9227 20.3271 17.278 20.1809C17.6333 20.0347 18.0141 19.9595 18.3987 19.9595ZM30.7336 43.2322H38.2781C38.0289 43.6053 37.8599 44.0254 37.7817 44.4663C37.7035 44.9072 37.7176 45.3595 37.8234 45.7947C35.6468 45.2415 33.365 45.2415 31.1883 45.7947C31.2941 45.3595 31.3083 44.9072 31.23 44.4663C31.1518 44.0254 30.9828 43.6053 30.7336 43.2322Z" />
<path d="M46.2199 24.324V25.7785H40.3628V24.324H46.2199Z" />
<path d="M47.6842 27.2322V28.6867H40.3628V27.2322H47.6842Z" />
<path d="M47.6842 30.1421V31.5967H40.3628V30.1421H47.6842Z" />
<path d="M46.2199 33.0508V34.5053H40.3628V33.0508H46.2199Z" />

</symbol>
<!-- how -->
<symbol viewBox="0 0 70 70" id="how">
<path fill-rule="evenodd" clip-rule="evenodd" d="M35.5651 15.0666C35.5651 15.8288 35.5651 16.591 35.5651 17.3531C35.5651 18.108 34.4363 18.108 34.4363 17.3531C34.4363 16.591 34.4363 15.8288 34.4363 15.0666C34.4363 14.3111 35.5651 14.3111 35.5651 15.0666Z" />
<path fill-rule="evenodd" clip-rule="evenodd" d="M42.9587 17.3759C42.5816 18.036 42.2051 18.6962 41.8279 19.3563C41.4548 20.0105 40.4776 19.4397 40.8508 18.7855C41.228 18.1254 41.6044 17.4652 41.9816 16.8057C42.3548 16.1516 43.3319 16.7217 42.9587 17.3759Z" />
<path fill-rule="evenodd" clip-rule="evenodd" d="M48.2209 23.1156C47.5682 23.4963 46.9154 23.8777 46.2627 24.2585C45.6159 24.6359 45.0522 23.6477 45.699 23.2703C46.3511 22.8895 47.0038 22.5081 47.6565 22.1267C48.3033 21.7492 48.8677 22.7375 48.2209 23.1156Z" />
<path fill-rule="evenodd" clip-rule="evenodd" d="M49.9402 30.7469C49.1866 30.7469 48.433 30.7469 47.6794 30.7469C46.9324 30.7469 46.9324 29.606 47.6794 29.606C48.433 29.606 49.1866 29.606 49.9402 29.606C50.6866 29.606 50.6866 30.7469 49.9402 30.7469Z" />
<path fill-rule="evenodd" clip-rule="evenodd" d="M47.6565 38.2251C47.0038 37.8443 46.3511 37.4629 45.699 37.0822C45.0522 36.7048 45.6159 35.7165 46.2627 36.094C46.9154 36.4747 47.5682 36.8561 48.2209 37.2369C48.8677 37.615 48.3033 38.6032 47.6565 38.2251Z" />
<path fill-rule="evenodd" clip-rule="evenodd" d="M21.7787 37.2369C22.4314 36.8561 23.0841 36.4747 23.7369 36.094C24.3837 35.7165 24.9474 36.7048 24.3006 37.0822C23.6485 37.4629 22.9958 37.8443 22.343 38.2251C21.6962 38.6032 21.1319 37.615 21.7787 37.2369Z" />
<path fill-rule="evenodd" clip-rule="evenodd" d="M20.0598 29.606C20.8134 29.606 21.567 29.606 22.3206 29.606C23.0676 29.606 23.0676 30.7469 22.3206 30.7469C21.567 30.7469 20.8134 30.7469 20.0598 30.7469C19.3134 30.7469 19.3134 29.606 20.0598 29.606Z" />
<path fill-rule="evenodd" clip-rule="evenodd" d="M22.343 22.1267C22.9958 22.5081 23.6485 22.8895 24.3006 23.2703C24.9474 23.6477 24.3837 24.6359 23.7369 24.2585C23.0841 23.8777 22.4314 23.4963 21.7787 23.1156C21.1319 22.7375 21.6962 21.7492 22.343 22.1267Z" />
<path fill-rule="evenodd" clip-rule="evenodd" d="M28.0184 16.8057C28.3955 17.4652 28.772 18.1254 29.1491 18.7855C29.5223 19.4397 28.5452 20.0105 28.172 19.3563C27.7949 18.6962 27.4184 18.036 27.0412 17.3759C26.6681 16.7217 27.6452 16.1516 28.0184 16.8057Z" />
<path d="M30.0426 47.3841C29.6951 45.5697 29.3951 43.7413 29.0035 41.9375C28.0026 37.3272 23.9412 36.9831 23.9412 30.1762C23.9412 23.9988 28.8927 18.9917 35.0008 18.9917C41.1088 18.9917 46.0604 23.9988 46.0604 30.1762C46.0604 36.9831 41.9989 37.3272 40.998 41.9375C40.6064 43.7413 40.3064 45.5697 39.9589 47.3841C36.6537 47.3841 33.3478 47.3841 30.0426 47.3841ZM35.0008 29.18C36.3069 29.18 37.3697 30.2556 37.3697 31.5765C37.3697 32.6901 36.6062 33.6563 35.5427 33.9091C35.5427 38.0407 35.5427 42.1729 35.5427 46.3045C36.7216 46.3045 37.9005 46.3045 39.0794 46.3045C39.3675 44.7728 39.6253 43.2338 39.9556 41.7095C40.9881 36.9557 44.9929 36.4703 44.9929 30.1762C44.9929 24.595 40.5194 20.0713 35.0008 20.0713C29.4822 20.0713 25.0086 24.595 25.0086 30.1762C25.0086 36.4703 29.0134 36.9557 30.0459 41.7095C30.3762 43.2338 30.634 44.7728 30.9222 46.3045C32.101 46.3045 33.2793 46.3045 34.4588 46.3045C34.4588 42.1722 34.4588 38.0407 34.4588 33.9084C33.3953 33.6557 32.6318 32.6901 32.6318 31.5765C32.6318 30.2556 33.6946 29.18 35.0008 29.18ZM35.0008 30.2596C34.2795 30.2596 33.6993 30.8464 33.6993 31.5765C33.6993 32.306 34.2795 32.8928 35.0008 32.8928C35.7221 32.8928 36.3023 32.306 36.3023 31.5765C36.3023 30.8464 35.7221 30.2596 35.0008 30.2596Z" />
<path fill-rule="evenodd" clip-rule="evenodd" d="M29.1389 48.2153C33.0461 48.2153 36.9533 48.2153 40.8605 48.2153C40.8605 48.8581 40.8605 49.501 40.8605 50.1438C36.9533 50.1438 33.0461 50.1438 29.1389 50.1438C29.1389 49.501 29.1389 48.8581 29.1389 48.2153Z" />
<path fill-rule="evenodd" clip-rule="evenodd" d="M29.6394 50.894C33.2136 50.894 36.7872 50.894 40.3614 50.894C40.3614 51.5362 40.3614 52.1797 40.3614 52.8225C36.7872 52.8225 33.2136 52.8225 29.6394 52.8225C29.6394 52.1797 29.6394 51.5362 29.6394 50.894Z" />
<path fill-rule="evenodd" clip-rule="evenodd" d="M30.5923 53.5723C33.5309 53.5723 36.4702 53.5723 39.4089 53.5723C39.4089 54.2144 39.4089 54.8579 39.4089 55.5C36.4702 55.5 33.5309 55.5 30.5923 55.5C30.5923 54.8579 30.5923 54.2144 30.5923 53.5723Z" />

</symbol>
<!-- seo -->
<symbol viewBox="0 0 70 70" id="seo">
<path d="M55.9139 45.0836V21.6653C55.9139 20.4317 54.9249 19.4285 53.7092 19.4285H15.6697C14.454 19.4285 13.465 20.4317 13.465 21.6653V45.0836H8.68945V45.8854C8.68945 48.3905 10.6166 50.4285 12.9858 50.4285H56.3936C58.7623 50.4285 60.6895 48.3905 60.6895 45.8854V45.0836H55.9139ZM15.0568 21.6653C15.0568 21.3157 15.3322 21.0319 15.6697 21.0319H53.7087C54.0467 21.0319 54.3221 21.3157 54.3221 21.6653V45.0836H38.7943V46.5797H30.5852V45.0836H15.0568V21.6653ZM56.3931 48.825H12.9858C11.75 48.825 10.7052 47.9196 10.3837 46.6871H28.9933V48.1831H40.3866V46.6871H58.9957C58.6737 47.9196 57.6289 48.825 56.3931 48.825Z" />
<path d="M53.7915 22.5789H15.5874V44.5493H53.7915V22.5789ZM52.1996 42.9459H17.1792V24.1823H52.1996V42.9459Z"/>
</symbol>

<!-- social_media -->
<symbol viewBox="0 0 70 70" id="social_media">
<path d="M17.9624 19.8553C15.7966 19.8553 14.1763 21.844 14.1763 24.1148V45.8851C14.1763 48.1559 15.7966 50.1446 17.9624 50.1446H52.0378C54.2036 50.1446 55.8239 48.1559 55.8239 45.8851V24.1148C55.8239 21.844 54.2036 19.8553 52.0378 19.8553H17.9624ZM17.9624 21.7484H52.0378C53.0182 21.7484 53.9309 22.7149 53.9309 24.1148V45.8851C53.9309 47.285 53.0182 48.2515 52.0378 48.2515H17.9624C16.982 48.2515 16.0693 47.285 16.0693 45.8851V24.1148C16.0693 22.7149 16.982 21.7484 17.9624 21.7484ZM19.7668 24.588C19.6424 24.5938 19.5205 24.6241 19.4079 24.677C19.2952 24.73 19.1941 24.8046 19.1103 24.8966C19.0265 24.9886 18.9617 25.0962 18.9195 25.2133C18.8773 25.3304 18.8586 25.4546 18.8644 25.579C18.8702 25.7033 18.9005 25.8252 18.9535 25.9378C19.0064 26.0505 19.081 26.1515 19.1731 26.2353C19.2651 26.3191 19.3727 26.3839 19.4898 26.4261C19.6069 26.4683 19.7312 26.487 19.8555 26.4811H50.1447C50.2701 26.4829 50.3947 26.4597 50.5111 26.4129C50.6274 26.3662 50.7334 26.2967 50.8227 26.2087C50.912 26.1206 50.983 26.0156 51.0314 25.8999C51.0798 25.7842 51.1047 25.66 51.1047 25.5346C51.1047 25.4091 51.0798 25.2849 51.0314 25.1692C50.983 25.0535 50.912 24.9486 50.8227 24.8605C50.7334 24.7724 50.6274 24.703 50.5111 24.6562C50.3947 24.6094 50.2701 24.5863 50.1447 24.588H19.8555C19.8259 24.5866 19.7963 24.5866 19.7668 24.588ZM31.5837 28.3594C31.4362 28.3751 31.2944 28.4252 31.1698 28.5058C31.0452 28.5864 30.9413 28.6951 30.8665 28.8232C30.7916 28.9513 30.748 29.0952 30.7389 29.2432C30.7299 29.3913 30.7559 29.5395 30.8146 29.6757L37.4404 45.7668C37.4779 45.8936 37.5415 46.0111 37.6272 46.1117C37.7128 46.2124 37.8186 46.294 37.9377 46.3514C38.0568 46.4087 38.1866 46.4404 38.3188 46.4445C38.4509 46.4486 38.5824 46.425 38.7048 46.3752C38.8273 46.3254 38.9379 46.2505 39.0297 46.1553C39.1214 46.0601 39.1922 45.9468 39.2375 45.8226C39.2828 45.6985 39.3016 45.5662 39.2926 45.4343C39.2837 45.3024 39.2472 45.1739 39.1856 45.0569L32.5598 28.9658C32.4908 28.7867 32.369 28.6327 32.2105 28.5244C32.052 28.4161 31.8644 28.3586 31.6724 28.3594C31.6429 28.358 31.6133 28.358 31.5837 28.3594ZM28.3595 29.7792C28.1123 29.789 27.8787 29.8951 27.7088 30.075L21.083 36.7008C20.9078 36.878 20.8096 37.1171 20.8096 37.3663C20.8096 37.6155 20.9078 37.8546 21.083 38.0318L27.7088 44.6576C27.7922 44.761 27.8964 44.8458 28.0146 44.9063C28.1329 44.9668 28.2626 45.0018 28.3952 45.0089C28.5279 45.016 28.6606 44.9951 28.7846 44.9476C28.9087 44.9 29.0213 44.8269 29.1153 44.733C29.2092 44.639 29.2823 44.5264 29.3299 44.4023C29.3774 44.2783 29.3983 44.1456 29.3912 44.0129C29.3841 43.8803 29.3491 43.7506 29.2886 43.6323C29.2281 43.5141 29.1433 43.4099 29.0399 43.3265L23.0796 37.3663L29.0399 31.4061C29.1768 31.2737 29.2706 31.103 29.309 30.9165C29.3474 30.7299 29.3286 30.5361 29.2552 30.3604C29.1817 30.1846 29.0569 30.0352 28.8971 29.9315C28.7373 29.8278 28.55 29.7747 28.3595 29.7792ZM41.5223 29.7792C41.3419 29.7968 41.1703 29.8658 41.028 29.978C40.8856 30.0902 40.7785 30.241 40.7193 30.4123C40.6601 30.5836 40.6513 30.7684 40.6941 30.9445C40.7368 31.1207 40.8292 31.2809 40.9603 31.4061L46.9206 37.3663L40.9603 43.3265C40.8569 43.4099 40.7721 43.5141 40.7116 43.6323C40.6511 43.7506 40.6161 43.8803 40.609 44.0129C40.6019 44.1456 40.6228 44.2783 40.6703 44.4023C40.7179 44.5264 40.791 44.639 40.8849 44.733C40.9789 44.8269 41.0915 44.9 41.2156 44.9476C41.3396 44.9951 41.4723 45.016 41.605 45.0089C41.7376 45.0018 41.8673 44.9668 41.9856 44.9063C42.1038 44.8458 42.208 44.761 42.2914 44.6576L48.9172 38.0318C49.0924 37.8546 49.1906 37.6155 49.1906 37.3663C49.1906 37.1171 49.0924 36.878 48.9172 36.7008L42.2914 30.075C42.2038 29.9824 42.0983 29.9085 41.9814 29.8577C41.8645 29.8069 41.7385 29.7802 41.6111 29.7792C41.5815 29.7778 41.5519 29.7778 41.5223 29.7792Z" />
</symbol>
<!-- pay -->
<symbol viewBox="0 0 70 70" id="pay">
<path d="M37.8689 29.3789C35.6152 29.3789 33.782 27.5848 33.782 25.3796C33.782 23.1741 35.6152 21.38 37.8689 21.38C40.1225 21.38 41.9557 23.1741 41.9557 25.3796C41.9557 27.5848 40.1225 29.3789 37.8689 29.3789ZM37.8689 22.6527C36.3322 22.6527 35.0825 23.876 35.0825 25.3796C35.0825 26.8832 36.3322 28.1062 37.8689 28.1062C39.4056 28.1062 40.6552 26.8832 40.6552 25.3796C40.6552 23.876 39.4056 22.6527 37.8689 22.6527Z"/>
<path d="M34.9798 18.4413C34.6204 18.4413 34.3296 18.1564 34.3296 17.8049V15.3655C34.3296 15.0141 34.6204 14.7291 34.9798 14.7291C35.3392 14.7291 35.6301 15.0141 35.6301 15.3655V17.8049C35.6301 18.1564 35.3392 18.4413 34.9798 18.4413Z" />
<path d="M34.9798 21.38C34.6204 21.38 34.3296 21.0951 34.3296 20.7437V20.1073C34.3296 19.7559 34.6204 19.4709 34.9798 19.4709C35.3392 19.4709 35.6301 19.7559 35.6301 20.1073V20.7437C35.6301 21.0951 35.3392 21.38 34.9798 21.38Z" />
<path d="M40.7589 18.7859C40.3995 18.7859 40.1086 18.501 40.1086 18.1495V15.7101C40.1086 15.3587 40.3995 15.0737 40.7589 15.0737C41.1183 15.0737 41.4091 15.3587 41.4091 15.7101V18.1495C41.4091 18.501 41.1183 18.7859 40.7589 18.7859Z" />
<path d="M40.7589 21.7246C40.3995 21.7246 40.1086 21.4397 40.1086 21.0883V20.4519C40.1086 20.1005 40.3995 19.8156 40.7589 19.8156C41.1183 19.8156 41.4091 20.1005 41.4091 20.4519V21.0883C41.4091 21.4397 41.1183 21.7246 40.7589 21.7246Z" />
<path d="M37.869 17.2213C37.5096 17.2213 37.2188 16.9364 37.2188 16.585V14.1455C37.2188 13.7941 37.5096 13.5092 37.869 13.5092C38.2284 13.5092 38.5192 13.7941 38.5192 14.1455V16.585C38.5192 16.9364 38.2284 17.2213 37.869 17.2213Z" />
<path d="M37.869 20.1602C37.5096 20.1602 37.2188 19.8752 37.2188 19.5238V18.8875C37.2188 18.536 37.5096 18.2511 37.869 18.2511C38.2284 18.2511 38.5192 18.536 38.5192 18.8875V19.5238C38.5192 19.8752 38.2284 20.1602 37.869 20.1602Z" />
<path d="M27.3291 36.1316C25.0754 36.1316 23.2422 34.3375 23.2422 32.1323C23.2422 29.9268 25.0754 28.1327 27.3291 28.1327C29.5827 28.1327 31.4159 29.9268 31.4159 32.1323C31.4159 34.3375 29.5827 36.1316 27.3291 36.1316ZM27.3291 29.4054C25.7924 29.4054 24.5427 30.6287 24.5427 32.1323C24.5427 33.6358 25.7924 34.8588 27.3291 34.8588C28.8658 34.8588 30.1155 33.6358 30.1155 32.1323C30.1155 30.6287 28.8658 29.4054 27.3291 29.4054Z"/>
<path d="M24.44 25.1939C24.0806 25.1939 23.7898 24.9089 23.7898 24.5575V22.118C23.7898 21.7666 24.0806 21.4817 24.44 21.4817C24.7994 21.4817 25.0903 21.7666 25.0903 22.118V24.5575C25.0903 24.9089 24.7994 25.1939 24.44 25.1939Z" />
<path d="M24.44 28.1327C24.0806 28.1327 23.7898 27.8478 23.7898 27.4963V26.86C23.7898 26.5086 24.0806 26.2236 24.44 26.2236C24.7994 26.2236 25.0903 26.5086 25.0903 26.86V27.4963C25.0903 27.8478 24.7994 28.1327 24.44 28.1327Z" />
<path d="M30.2191 25.5384C29.8597 25.5384 29.5688 25.2535 29.5688 24.902V22.4629C29.5688 22.1115 29.8597 21.8265 30.2191 21.8265C30.5785 21.8265 30.8693 22.1115 30.8693 22.4629V24.902C30.8693 25.2535 30.5785 25.5384 30.2191 25.5384Z" />
<path d="M30.2191 28.4775C29.8597 28.4775 29.5688 28.1926 29.5688 27.8412V27.2048C29.5688 26.8534 29.8597 26.5685 30.2191 26.5685C30.5785 26.5685 30.8693 26.8534 30.8693 27.2048V27.8412C30.8693 28.1926 30.5785 28.4775 30.2191 28.4775Z" />
<path d="M27.329 23.9743C26.9695 23.9743 26.6787 23.6893 26.6787 23.3379V20.8984C26.6787 20.547 26.9695 20.2621 27.329 20.2621C27.6884 20.2621 27.9792 20.547 27.9792 20.8984V23.3379C27.9792 23.6893 27.6884 23.9743 27.329 23.9743Z" />
<path d="M27.329 26.9131C26.9695 26.9131 26.6787 26.6282 26.6787 26.2767V25.6404C26.6787 25.289 26.9695 25.004 27.329 25.004C27.6884 25.004 27.9792 25.289 27.9792 25.6404V26.2767C27.9792 26.6282 27.6884 26.9131 27.329 26.9131Z" />
<path d="M47.6753 33.405C45.4216 33.405 43.5884 31.6109 43.5884 29.4054C43.5884 27.2002 45.4216 25.4061 47.6753 25.4061C49.9289 25.4061 51.7621 27.2002 51.7621 29.4054C51.7621 31.6109 49.9289 33.405 47.6753 33.405ZM47.6753 26.6788C46.1385 26.6788 44.8889 27.9018 44.8889 29.4054C44.8889 30.909 46.1385 32.1323 47.6753 32.1323C49.212 32.1323 50.4616 30.909 50.4616 29.4054C50.4616 27.9018 49.212 26.6788 47.6753 26.6788Z" />
<path d="M44.7862 22.4673C44.4268 22.4673 44.136 22.1824 44.136 21.8309V19.3915C44.136 19.0401 44.4268 18.7551 44.7862 18.7551C45.1456 18.7551 45.4365 19.0401 45.4365 19.3915V21.8309C45.4365 22.1824 45.1456 22.4673 44.7862 22.4673Z" />
<path d="M44.7862 25.4061C44.4268 25.4061 44.136 25.1212 44.136 24.7698V24.1334C44.136 23.782 44.4268 23.4971 44.7862 23.4971C45.1456 23.4971 45.4365 23.782 45.4365 24.1334V24.7698C45.4365 25.1212 45.1456 25.4061 44.7862 25.4061Z" />
<path d="M50.5653 22.8119C50.2059 22.8119 49.915 22.527 49.915 22.1755V19.7361C49.915 19.3847 50.2059 19.0997 50.5653 19.0997C50.9247 19.0997 51.2155 19.3847 51.2155 19.7361V22.1755C51.2155 22.527 50.9247 22.8119 50.5653 22.8119Z" />
<path d="M50.5653 25.7507C50.2059 25.7507 49.915 25.4658 49.915 25.1144V24.478C49.915 24.1266 50.2059 23.8417 50.5653 23.8417C50.9247 23.8417 51.2155 24.1266 51.2155 24.478V25.1144C51.2155 25.4658 50.9247 25.7507 50.5653 25.7507Z" />
<path d="M47.6751 21.2473C47.3157 21.2473 47.0249 20.9624 47.0249 20.611V18.1715C47.0249 17.8201 47.3157 17.5352 47.6751 17.5352C48.0346 17.5352 48.3254 17.8201 48.3254 18.1715V20.611C48.3254 20.9624 48.0346 21.2473 47.6751 21.2473Z" />
<path d="M47.6751 24.1863C47.3157 24.1863 47.0249 23.9014 47.0249 23.5499V22.9136C47.0249 22.5622 47.3157 22.2772 47.6751 22.2772C48.0346 22.2772 48.3254 22.5622 48.3254 22.9136V23.5499C48.3254 23.9014 48.0346 24.1863 47.6751 24.1863Z" />
<path d="M24.9039 52.7907C24.6073 52.7907 24.347 52.594 24.2733 52.311L21.0519 39.8906C21.0069 39.7153 21.0399 39.5292 21.1428 39.3791C21.2456 39.2291 21.4095 39.129 21.5923 39.1038C25.897 38.5122 28.7869 39.921 29.5464 40.3498L37.3118 39.9204C38.4453 39.8284 39.4765 40.5683 39.7477 41.6424C40.4119 41.3792 41.0437 41.0589 41.633 40.6863L49.9147 35.2183C50.6183 34.7158 51.5232 34.5984 52.336 34.9054C53.1221 35.2015 53.7076 35.8574 53.9019 36.6594C54.0962 37.4614 53.8746 38.3047 53.3082 38.9149L41.9023 51.0768C41.0113 51.9142 39.836 52.3215 38.6542 52.2321L24.9312 52.7901C24.9217 52.7904 24.9128 52.7907 24.9039 52.7907ZM22.4959 40.2839L25.4043 51.4972L38.6402 50.9587C38.6701 50.9581 38.6974 50.9584 38.7253 50.9606C39.5496 51.0333 40.3719 50.7509 40.9739 50.1869L52.348 38.0567C52.6274 37.7556 52.7335 37.3523 52.6363 36.9533C52.5398 36.5541 52.2598 36.2405 51.8686 36.093C51.4667 35.9416 51.0209 36 50.6748 36.2508C50.6672 36.2561 50.6602 36.2614 50.6526 36.2663L42.3499 41.7484C41.4152 42.3394 40.4011 42.807 39.3241 43.1454C39.1025 43.2147 38.8619 43.1643 38.6891 43.0114C38.5171 42.8592 38.4409 42.6286 38.4897 42.4068C38.5151 42.2893 38.5221 42.1843 38.5107 42.0861C38.4478 41.5386 37.9544 41.1477 37.4007 41.19L29.4181 41.6318C29.2676 41.6381 29.1381 41.6023 29.0212 41.5262C28.9965 41.5104 26.5047 39.9471 22.4959 40.2839ZM50.2887 35.7387H50.2951H50.2887Z" />
<path d="M31.31 45.3363C30.9906 45.3363 30.7124 45.1064 30.6667 44.7882C30.6166 44.4402 30.8648 44.1186 31.2204 44.0698L37.7622 43.1719C38.2467 43.0389 38.5668 42.5771 38.5103 42.085C38.448 41.539 37.9546 41.1478 37.4009 41.1901L29.4183 41.6319C29.0703 41.6487 28.7522 41.3837 28.7325 41.0326C28.7122 40.6814 28.9865 40.381 29.3446 40.3611L37.312 39.9205C38.5471 39.8189 39.6609 40.7094 39.8031 41.943C39.9327 43.0765 39.1783 44.1388 38.0474 44.4141C38.0258 44.4197 38.0035 44.4238 37.9807 44.4269L31.4008 45.3301C31.3703 45.3345 31.3398 45.3363 31.31 45.3363Z" />
<path d="M21.1691 55.5091C20.8535 55.5091 20.5423 55.4262 20.2642 55.264C19.8572 55.0269 19.5689 54.6485 19.452 54.1988L16.0262 40.9895C15.91 40.5399 15.9792 40.0729 16.2218 39.6739C16.4637 39.2756 16.8504 38.9931 17.3095 38.8791L20.1207 38.1809C20.5792 38.0681 21.0567 38.1346 21.4643 38.372C21.872 38.6091 22.1603 38.9876 22.2772 39.4372L25.703 52.6465C25.943 53.5749 25.3671 54.5217 24.419 54.7569L21.6085 55.4551C21.4631 55.4911 21.3151 55.5091 21.1691 55.5091ZM20.5582 39.4002C20.5188 39.4002 20.4795 39.4048 20.4407 39.4145L17.6296 40.1127C17.507 40.1431 17.4035 40.2186 17.3387 40.3249C17.274 40.4315 17.2556 40.5561 17.2867 40.676L20.7131 53.8859C20.7443 54.0062 20.8211 54.1072 20.9297 54.1706C21.0389 54.234 21.1672 54.2514 21.2885 54.2215L24.099 53.5233C24.3523 53.4603 24.506 53.2073 24.4419 52.9594L21.016 39.7501C20.9849 39.6298 20.9081 39.5288 20.7995 39.4654C20.7252 39.4223 20.642 39.4002 20.5582 39.4002ZM20.2807 38.7977H20.2871H20.2807Z" />

</symbol>

<!-- strategy -->
<symbol viewBox="0 0 70 70" id="strategy">
<path d="M23.6367 31.9975C26.0318 31.9975 27.9862 30.0514 27.9862 27.6479V25.311C27.9862 22.9158 26.0402 20.9614 23.6367 20.9614C21.2332 20.9614 19.2871 22.9075 19.2871 25.311V27.6479C19.2954 30.0514 21.2415 31.9975 23.6367 31.9975ZM20.4597 25.3193C20.4597 23.5645 21.8902 22.1341 23.645 22.1341C25.3998 22.1341 26.8302 23.5645 26.8302 25.3193V27.6563C26.8302 29.411 25.3998 30.8415 23.645 30.8415C21.8902 30.8415 20.4597 29.411 20.4597 27.6563V25.3193Z" />
<path d="M28.1775 32.6797H27.2294C26.9716 32.6797 26.7387 32.8543 26.6722 33.1038L25.5495 37.0625L24.801 35.7152L25.4829 33.5529C25.5412 33.3783 25.5079 33.187 25.3998 33.0373C25.2917 32.8876 25.117 32.7961 24.9341 32.7961H22.5306C22.3476 32.7961 22.173 32.8876 22.0648 33.0373C21.9567 33.187 21.9235 33.3783 21.9817 33.5529L22.6636 35.7235L22.0233 36.9544L21.0253 33.1121C20.9587 32.8543 20.7259 32.6797 20.4597 32.6797H19.362C18.0978 32.6797 16.8753 33.2203 16.027 34.16C15.1871 35.0915 14.7712 36.339 14.8877 37.5948V45.9446C14.8877 46.2689 15.1455 46.5268 15.4698 46.5268H32.0613C32.3857 46.5268 32.6435 46.2689 32.6435 45.9446V37.5948C32.7599 36.3473 32.3441 35.0915 31.5041 34.16C30.6558 33.2203 29.4416 32.6797 28.1775 32.6797ZM24.119 33.9604L23.7282 35.1996H23.6866L23.2957 33.9604H24.119ZM31.4875 37.5116C31.4875 37.5282 31.4875 37.5532 31.4875 37.5698V45.3708H16.052V37.5698C16.052 37.5532 16.052 37.5282 16.052 37.5116C15.9605 36.5802 16.2682 35.6404 16.8919 34.9418C17.524 34.2432 18.4222 33.844 19.362 33.844H19.9857L21.2581 38.7175C21.3164 38.9337 21.491 39.1001 21.7072 39.1417C21.9235 39.1832 22.148 39.1001 22.2811 38.9254C22.306 38.9005 22.3227 38.8672 22.3393 38.8423L23.62 36.3722H23.8196L25.2168 38.8589C25.3332 39.0668 25.5578 39.1832 25.7907 39.15C26.0235 39.125 26.2148 38.9587 26.2813 38.7341L27.6702 33.8523H28.1775C29.1173 33.8523 30.0155 34.2515 30.6475 34.9501C31.2713 35.6404 31.579 36.5802 31.4875 37.5116Z" />
<path d="M47.497 36.6382C47.6135 36.7547 47.7632 36.8046 47.9045 36.8046C48.0459 36.8046 48.2039 36.7464 48.3204 36.6382L49.1354 35.8232L49.9504 36.6382C50.0668 36.7547 50.2165 36.8046 50.3662 36.8046C50.5159 36.8046 50.6656 36.7464 50.7737 36.6382C50.9983 36.4137 50.9983 36.0395 50.7737 35.8149L49.9587 34.9999L50.7737 34.1849C50.9983 33.9603 50.9983 33.5861 50.7737 33.3615C50.5492 33.137 50.175 33.137 49.9504 33.3615L49.1354 34.1765L48.3204 33.3615C48.0958 33.137 47.7216 33.137 47.497 33.3615C47.2725 33.5861 47.2725 33.9603 47.497 34.1849L48.312 34.9999L47.497 35.8149C47.2725 36.0395 47.2725 36.4054 47.497 36.6382Z" />
<path d="M48.079 23.3069C48.1955 23.4317 48.3535 23.4982 48.5032 23.4982C48.6446 23.4982 48.786 23.4483 48.8941 23.3485L51.5471 20.9201C51.7882 20.7038 51.7966 20.3379 51.5803 20.0967C51.3641 19.8555 50.9982 19.8472 50.757 20.0635L48.5281 22.101L47.5218 21.0115C47.3056 20.7787 46.9314 20.762 46.6985 20.9783C46.4656 21.1945 46.449 21.5688 46.6652 21.8016L48.079 23.3069Z" />
<path d="M48.079 49.9199C48.1955 50.0447 48.3535 50.1112 48.5032 50.1112C48.6446 50.1112 48.786 50.0613 48.8941 49.9615L51.5471 47.5331C51.7882 47.3169 51.7966 46.9509 51.5803 46.7098C51.3641 46.4686 50.9982 46.4603 50.757 46.6765L48.5281 48.714L47.5218 47.6246C47.3056 47.3917 46.9314 47.3751 46.6985 47.5913C46.4656 47.8075 46.449 48.1735 46.6652 48.4147L48.079 49.9199Z" />
<path d="M43.1638 22.1343C43.3967 25.228 45.9831 27.6814 49.1351 27.6814C52.4368 27.6814 55.123 24.9952 55.123 21.6935C55.123 18.3918 52.4368 15.7056 49.1351 15.7056C46.0746 15.7056 43.5464 18.0093 43.1888 20.9699H40.2197C39.8954 20.9699 39.6376 21.2278 39.6376 21.5521V34.4178H35.7371L37.3256 32.8294C37.5501 32.6048 37.5501 32.2306 37.3256 32.006C37.101 31.7815 36.7268 31.7815 36.5022 32.006L34.0073 34.501C33.7827 34.7255 33.7827 35.0998 34.0073 35.3243L36.5022 37.8193C36.6187 37.9357 36.7684 37.9856 36.9181 37.9856C37.0678 37.9856 37.2175 37.9274 37.3339 37.8193C37.5584 37.5947 37.5584 37.2205 37.3339 36.996L35.9201 35.5821H39.6459V48.4478C39.6459 48.7722 39.9037 49.03 40.2281 49.03H43.1971C43.5547 51.9907 46.0829 54.2944 49.1434 54.2944C52.4451 54.2944 55.1313 51.6081 55.1313 48.3065C55.1313 45.0048 52.4451 42.3185 49.1434 42.3185C45.9914 42.3185 43.405 44.7636 43.1721 47.8574H40.8102V35.5821H43.1804C43.4715 38.6094 46.033 40.9879 49.1434 40.9879C52.4451 40.9879 55.1313 38.3017 55.1313 35C55.1313 31.6983 52.4451 29.0121 49.1434 29.0121C46.0413 29.0121 43.4798 31.3906 43.1804 34.4178H40.8102V22.1343H43.1638ZM49.1351 16.8699C51.7964 16.8699 53.9587 19.0322 53.9587 21.6935C53.9587 24.3548 51.7964 26.5171 49.1351 26.5171C46.4738 26.5171 44.3115 24.3548 44.3115 21.6935C44.3115 19.0322 46.4738 16.8699 49.1351 16.8699ZM49.1351 43.4829C51.7964 43.4829 53.9587 45.6452 53.9587 48.3065C53.9587 50.9678 51.7964 53.1301 49.1351 53.1301C46.4738 53.1301 44.3115 50.9678 44.3115 48.3065C44.3115 45.6452 46.4738 43.4829 49.1351 43.4829ZM49.1351 30.1764C51.7964 30.1764 53.9587 32.3387 53.9587 35C53.9587 37.6613 51.7964 39.8236 49.1351 39.8236C46.4738 39.8236 44.3115 37.6613 44.3115 35C44.3115 32.3387 46.4738 30.1764 49.1351 30.1764Z" />

</symbol>

</svg>