<svg width="151" height="59" viewBox="0 0 151 59" fill="none" xmlns="http://www.w3.org/2000/svg">
<g clip-path="url(#clip0_74_65)">
<path d="M58.1619 53.5285C56.7543 53.5285 55.5843 53.0798 54.6517 52.1825C53.7104 51.2675 53.2397 50.1151 53.2397 48.7251C53.2397 47.3175 53.7104 46.165 54.6517 45.2676C55.5843 44.3703 56.7763 43.9216 58.2279 43.9216C59.2924 43.9216 60.2161 44.1548 60.9991 44.621V46.4949C60.1458 45.967 59.266 45.7031 58.3599 45.7031C57.4185 45.7031 56.6532 45.9846 56.0637 46.5477C55.4743 47.1019 55.1796 47.8409 55.1796 48.7647C55.1796 49.6796 55.4655 50.4098 56.0373 50.9552C56.6092 51.5007 57.3174 51.7734 58.1619 51.7734C58.9713 51.7734 59.5915 51.571 60.0226 51.1664V47.9861H61.9229V52.0637C61.527 52.486 60.9991 52.8335 60.3393 53.1062C59.6531 53.3877 58.9273 53.5285 58.1619 53.5285ZM66.1008 50.8892C66.6462 51.4611 67.3281 51.747 68.1462 51.747C68.9556 51.747 69.633 51.4611 70.1784 50.8892C70.7239 50.3174 70.9966 49.596 70.9966 48.7251C70.9966 47.8541 70.7239 47.1327 70.1784 46.5609C69.633 45.989 68.9556 45.7031 68.1462 45.7031C67.3281 45.7031 66.6462 45.989 66.1008 46.5609C65.5642 47.1239 65.2958 47.8453 65.2958 48.7251C65.2958 49.6048 65.5642 50.3262 66.1008 50.8892ZM63.356 48.7251C63.356 47.3702 63.8091 46.2354 64.7152 45.3204C65.6213 44.3879 66.765 43.9216 68.1462 43.9216C69.5186 43.9216 70.6579 44.3879 71.564 45.3204C72.479 46.253 72.9364 47.3878 72.9364 48.7251C72.9364 50.0535 72.479 51.1884 71.564 52.1297C70.6579 53.0622 69.5186 53.5285 68.1462 53.5285C66.765 53.5285 65.6213 53.0622 64.7152 52.1297C63.8091 51.1972 63.356 50.0623 63.356 48.7251ZM75.1828 53.3437H73.1902L77.149 44.0536H78.9701L82.929 53.3437H80.91L79.9994 51.206H76.0933L75.1828 53.3437ZM78.0464 46.4289L76.6872 49.6356H79.3924L78.0464 46.4289ZM90.735 53.3437H84.15V44.1064H86.0503V51.6414H90.735V53.3437ZM95.1628 53.5285C93.7728 53.5285 92.6027 53.1986 91.6526 52.5388V50.5593C92.0397 50.8936 92.55 51.184 93.1834 51.4303C93.8256 51.6678 94.459 51.7866 95.0836 51.7866C95.6027 51.7866 96.0294 51.6942 96.3637 51.5095C96.698 51.3159 96.8651 51.052 96.8651 50.7177C96.8651 50.357 96.7068 50.1019 96.3901 49.9523C96.2581 49.8731 96.0821 49.794 95.8622 49.7148L95.5455 49.6092L94.8065 49.3849L94.1203 49.1605C94.0235 49.1341 93.8168 49.0594 93.5001 48.9362C93.2274 48.8306 93.0294 48.7383 92.9063 48.6591C92.4488 48.3424 92.1585 48.074 92.0353 47.8541C91.8242 47.4318 91.7186 47.0008 91.7186 46.5609C91.7186 45.7427 92.0309 45.1005 92.6555 44.6342C93.2802 44.1592 94.1292 43.9216 95.2024 43.9216C96.2845 43.9216 97.2918 44.1768 98.2243 44.687V46.5345C97.283 45.9539 96.2845 45.6635 95.2288 45.6635C94.1819 45.6635 93.6584 45.9671 93.6584 46.5741C93.6584 46.838 93.8212 47.0491 94.1467 47.2075C94.3402 47.3131 94.591 47.4054 94.8989 47.4846C95.3124 47.599 95.6467 47.6958 95.9018 47.7749C96.6672 48.0125 97.3358 48.3336 97.9076 48.7383C98.5235 49.1693 98.8314 49.8116 98.8314 50.6649C98.8314 51.5535 98.4839 52.2529 97.7889 52.7631C97.0939 53.2734 96.2185 53.5285 95.1628 53.5285Z" fill="#F7F7F7"/>
<path d="M55.4569 32.9839H53.5566V23.7465H55.4437L58.1225 27.5734L60.8014 23.7465H62.6752V32.9839H60.8014V26.6629L58.6768 29.632H57.6211L55.4569 26.6629V32.9839ZM65.9044 32.9839H63.9118L67.8706 23.6937H69.6917L73.6506 32.9839H71.6316L70.721 30.8461H66.8149L65.9044 32.9839ZM68.768 26.0691L67.4088 29.2757H70.114L68.768 26.0691ZM76.7719 32.9839H74.8716V23.7465H79.1472C80.1325 23.7465 80.9067 24.0016 81.4698 24.5119C82.0416 25.0134 82.3275 25.6688 82.3275 26.4781C82.3275 27.094 82.156 27.6306 81.8129 28.0881C81.4786 28.5367 81.0123 28.8535 80.4141 29.0382L83.2644 32.9839H81.0607L78.3686 29.2493H76.7719V32.9839ZM76.7719 25.4092V27.6526H79.0417C79.4727 27.6526 79.807 27.5558 80.0446 27.3623C80.2909 27.1687 80.4141 26.8916 80.4141 26.5309C80.4141 26.179 80.2909 25.9063 80.0446 25.7128C79.807 25.5104 79.4727 25.4092 79.0417 25.4092H76.7719ZM86.4113 32.9839H84.5111V23.7465H86.4113V27.3887L89.816 23.7465H92.1385L88.2192 27.9825L92.8115 32.9839H90.3834L86.4113 28.7215V32.9839ZM100.756 32.9839H93.8283V23.7465H100.611V25.4488H95.7286V27.2303H99.6611V28.9062H95.7286V31.2816H100.756V32.9839ZM101.649 25.4488V23.7465H109.395V25.4488H106.465V32.9839H104.565V25.4488H101.649ZM112.766 32.9839H110.879V23.7465H112.766V32.9839ZM116.72 32.9839H114.86V23.7465H116.483L121.141 29.6584V23.7465H122.989V32.9839H121.418L116.72 27.0456V32.9839ZM129.646 33.1686C128.238 33.1686 127.068 32.72 126.136 31.8226C125.194 30.9077 124.724 29.7552 124.724 28.3652C124.724 26.9576 125.194 25.8051 126.136 24.9078C127.068 24.0104 128.26 23.5618 129.712 23.5618C130.776 23.5618 131.7 23.7949 132.483 24.2612V26.135C131.63 25.6072 130.75 25.3433 129.844 25.3433C128.902 25.3433 128.137 25.6248 127.548 26.1878C126.958 26.7421 126.663 27.4811 126.663 28.4048C126.663 29.3197 126.949 30.0499 127.521 30.5954C128.093 31.1408 128.801 31.4135 129.646 31.4135C130.455 31.4135 131.075 31.2112 131.506 30.8065V27.6262H133.407V31.7038C133.011 32.1261 132.483 32.4736 131.823 32.7463C131.137 33.0279 130.411 33.1686 129.646 33.1686Z" fill="#F7F7F7"/>
<path d="M55.9846 10.1696C56.53 10.7414 57.2118 11.0273 58.03 11.0273C58.8393 11.0273 59.5167 10.7414 60.0622 10.1696C60.6076 9.59772 60.8804 8.87633 60.8804 8.00538C60.8804 7.13442 60.6076 6.41303 60.0622 5.84119C59.5167 5.26936 58.8393 4.98344 58.03 4.98344C57.2118 4.98344 56.53 5.26936 55.9846 5.84119C55.4479 6.40423 55.1796 7.12563 55.1796 8.00538C55.1796 8.88512 55.4479 9.60652 55.9846 10.1696ZM53.2397 8.00538C53.2397 6.65056 53.6928 5.51569 54.599 4.60075C55.5051 3.66821 56.6488 3.20195 58.03 3.20195C59.4024 3.20195 60.5417 3.66821 61.4478 4.60075C62.3627 5.53328 62.8202 6.66816 62.8202 8.00538C62.8202 9.3338 62.3627 10.4686 61.4478 11.41C60.5417 12.3425 59.4024 12.8088 58.03 12.8088C56.6488 12.8088 55.5051 12.3425 54.599 11.41C53.6928 10.4774 53.2397 9.34259 53.2397 8.00538ZM66.3968 12.624H64.5361V3.3867H66.1593L70.8175 9.29861V3.3867H72.665V12.624H71.0946L66.3968 6.68575V12.624ZM81.3017 12.624H74.7168V3.3867H76.6171V10.9217H81.3017V12.624ZM85.7252 12.624H83.8382V8.48044L80.262 3.3867H82.5054L84.8015 6.67256L87.1108 3.3867H89.2882L85.7252 8.44085V12.624Z" fill="#F7F7F7"/>
<path d="M24.0569 52.8435C37.0713 52.8435 47.6216 42.2933 47.6216 29.2788C47.6216 16.2644 37.0713 5.71414 24.0569 5.71414C11.0425 5.71414 0.492188 16.2644 0.492188 29.2788C0.492188 42.2933 11.0425 52.8435 24.0569 52.8435Z" fill="#FF5F2E"/>
<path d="M20.1029 15.1648L30.778 43.4238H9.42773L20.1029 15.1648Z" fill="#F7F7F7"/>
<path d="M28.0105 12.6174L38.6856 40.8764H17.3354L28.0105 12.6174Z" fill="#F7F7F7"/>
</g>
<defs>
<clipPath id="clip0_74_65">
<rect width="150" height="58" fill="white" transform="translate(0.492188 0.278839)"/>
</clipPath>
</defs>
</svg>
